<svg xmlns="http://www.w3.org/2000/svg" xmlns:xlink="http://www.w3.org/1999/xlink" viewBox="0 0 1366 458.5"><defs><style>.cls-1{fill:url(#linear-gradient);}.cls-2{fill:url(#linear-gradient-2);}.cls-3{fill:url(#linear-gradient-3);}.cls-4{fill:url(#linear-gradient-4);}.cls-5{fill:url(#linear-gradient-5);}.cls-6{fill:url(#linear-gradient-6);}.cls-7{fill:url(#linear-gradient-7);}</style><linearGradient id="linear-gradient" x1="96.73" y1="397.81" x2="94.65" y2="373.66" gradientUnits="userSpaceOnUse"><stop offset="0" stop-color="#fff"/><stop offset="0.1" stop-color="#dce4f6"/><stop offset="0.28" stop-color="#a2b7e7"/><stop offset="0.45" stop-color="#7292da"/><stop offset="0.61" stop-color="#4d75d1"/><stop offset="0.76" stop-color="#3260ca"/><stop offset="0.9" stop-color="#2253c5"/><stop offset="1" stop-color="#1c4fc4"/></linearGradient><linearGradient id="linear-gradient-2" x1="1263.5" y1="405.56" x2="1261.52" y2="382.53" xlink:href="#linear-gradient"/><linearGradient id="linear-gradient-3" x1="962.25" y1="444.44" x2="962.09" y2="442.53" xlink:href="#linear-gradient"/><linearGradient id="linear-gradient-4" x1="739.48" y1="832.42" x2="668.17" y2="3.85" xlink:href="#linear-gradient"/><linearGradient id="linear-gradient-5" x1="249.02" y1="442.27" x2="245.82" y2="405.16" xlink:href="#linear-gradient"/><linearGradient id="linear-gradient-6" x1="27.65" y1="370.86" x2="26.46" y2="357.03" xlink:href="#linear-gradient"/><linearGradient id="linear-gradient-7" x1="815.81" y1="460.3" x2="815.08" y2="451.83" xlink:href="#linear-gradient"/></defs><title>Asset 1</title><g id="Layer_2" data-name="Layer 2"><g id="Layer_1-2" data-name="Layer 1"><g id="Layer_1-2-2" data-name="Layer 1-2"><path class="cls-1" d="M117,385.31c-14.5-5-29.18-8.19-43.73-11.6Q94.62,379.59,117,385.31Z"/><path class="cls-2" d="M1299,378.5c-28.13,6.92-54.94,14-81.58,20.76q44.77-10.27,89.16-22.32C1304.05,377.44,1301.53,378,1299,378.5Z"/><path class="cls-3" d="M944.37,445.13q17.77-1.92,35.54-4.1c-6.29.4-12.59.87-18.91,1.47A122.94,122.94,0,0,0,944.37,445.13Z"/><path class="cls-4" d="M1306.58,376.94q29.81-8.08,59.42-16.94V0H0V352.3q7.55,2.34,15.27,4.66c5.07.77,10.16,1.51,14.73,3.54q4.09,1.77,8.23,3.28,17.13,5,35.06,9.93c14.55,3.41,29.23,6.56,43.73,11.6q42.09,10.72,87.81,20.63c22.31,4.46,44.52,8.8,68.17,12.56a151.2,151.2,0,0,1,15.36,3.85,2326.49,2326.49,0,0,0,479,35.06c7.91-1.38,15.78-2.84,23.65-3.91,24.49-3.27,48.39-1.79,72.34-1.06q40.59-3,81-7.31A122.94,122.94,0,0,1,961,442.5c6.32-.6,12.62-1.07,18.91-1.47a2341.54,2341.54,0,0,0,237.51-41.77c26.64-6.73,53.45-13.84,81.58-20.76C1301.53,378,1304.05,377.44,1306.58,376.94Z"/><path class="cls-5" d="M204.83,405.94q40.41,8.7,83.53,16.41A151.2,151.2,0,0,0,273,418.5C249.35,414.74,227.14,410.4,204.83,405.94Z"/><path class="cls-6" d="M15.27,357q11.3,3.42,23,6.82-4.14-1.51-8.23-3.28C25.43,358.47,20.34,357.73,15.27,357Z"/><path class="cls-7" d="M791,453.5c-7.87,1.07-15.74,2.53-23.65,3.91q23.63-.72,47.65-2,24.19-1.26,48.34-3C839.39,451.71,815.49,450.23,791,453.5Z"/></g></g></g></svg>